<?xml version="1.0" encoding="UTF-8"?>
<!DOCTYPE svg PUBLIC "-//W3C//DTD SVG 1.1//EN" "http://www.w3.org/Graphics/SVG/1.1/DTD/svg11.dtd">
<!-- Creator: CorelDRAW -->
<svg xmlns="http://www.w3.org/2000/svg" xml:space="preserve" width="15.7626in" height="1.84094in" version="1.1" style="shape-rendering:geometricPrecision; text-rendering:geometricPrecision; image-rendering:optimizeQuality; fill-rule:evenodd; clip-rule:evenodd"
viewBox="0 0 25091.34 2930.45"
 xmlns:xlink="http://www.w3.org/1999/xlink"
 xmlns:xodm="http://www.corel.com/coreldraw/odm/2003">
 <defs>
  <style type="text/css">
   <![CDATA[
    .fil0 {fill:#127733}
    .fil1 {fill:#FB8C3B}
   ]]>
  </style>
 </defs>
 <g id="Layer_x0020_1">
  <metadata id="CorelCorpID_0Corel-Layer"/>
  <path class="fil0" d="M10763.16 1888.85c14.28,22.52 13.53,14.38 29.19,57.61l28.7 144.89c-16.85,-19.34 -37.18,-18.9 -53.92,-90.73 -7.21,-30.96 -3.97,-78.87 -3.97,-111.78zm491.89 -28.95c417.08,0 327.93,-81.23 578.66,-86.8 -8.27,370.85 -173.6,-118.24 -173.6,318.25l-231.45 0c0,-261.12 2.66,-177.53 -173.6,-173.6l0 -57.86zm-491.89 28.95c-32.33,-50.96 -12.75,57.92 -30.48,-85.88 -16.58,-134.1 10.46,-219.77 59.43,-290.27 -2.84,128.01 -28.95,204.39 -28.95,376.15zm28.95 -376.15c9.63,-115.71 17.18,-122.58 86.8,-173.6 -13.29,57.07 -9.16,54.77 -37.14,107.5 -29.05,54.75 -31.23,44.94 -49.65,66.09zm86.8 -173.6c43.19,-161.71 252.1,-277.49 424.05,-330.22 369.62,-113.25 755.13,62.57 922.3,401.57 118.31,239.83 63.94,364.8 42.45,623.05l-20.61 -37.25c-2.77,-4.68 -7.42,-13.26 -10.56,-18.39 -61.58,-99.99 -110.72,-126.92 -230.91,-174.14 -232.82,-91.56 -58.5,14.55 -149.71,-110.69 -18.73,-25.7 34.65,-64.59 -166.87,-64.59l0 -173.6 -289.35 0 0 173.6 -173.6 0 0 202.51c-320.14,-214.36 -188.61,-427.84 -347.2,-491.85zm-405.06 -1157.34c35.03,-13.57 99.07,-28.91 144.66,-28.91l1504.54 0c248.03,0 457.34,154.9 462.91,405.05l-2112.11 0 0 -376.14zm1678.11 2748.69c199.5,0 326.66,-99.86 427.95,-208.63 109.7,-117.8 150.74,-267.13 150.74,-485.77l0 -1562.4c0,-316 -264.16,-607.6 -578.69,-607.6l-1620.25 0c-97.5,0 -202.54,51.13 -202.54,144.66l0 2575.05c0,67.5 77.2,144.69 144.69,144.69l1678.11 0z"/>
  <path class="fil1" d="M11226.12 1830.98l28.94 28.94c417.08,0 327.9,-81.23 578.63,-86.83l43.64 -12.05 3.2 -1.05c5.5,-3.15 12.75,-15.6 -24.64,-66.98 -18.69,-25.69 34.69,-64.58 -166.85,-64.58l0 -173.6 -289.32 0 0 173.6 -173.6 0 0 202.54z"/>
  <path class="fil1" d="M23204.49 818.3c0,-78.16 13.81,-79.76 28.91,-144.66 539.94,0 1330.95,-65.51 1330.95,752.26 0,968.71 -624.45,839.05 -1330.95,839.05 -2.9,-130.85 -28.91,-114.96 -28.91,-260.4l0 -1186.25zm868 2083.2c281.11,0 612.97,-239.66 735.92,-421.39 337.94,-499.61 377.89,-1303.06 94.22,-1826.49 -95.96,-176.99 -264.51,-306.19 -446,-393.06 -611.35,-292.7 -1133.04,-194.52 -1772.94,-194.52l0 2835.45 1388.8 0z"/>
  <path class="fil1" d="M19767.32 968.87c77.23,-289.27 31.85,-209.14 109.83,-266.31 49.04,210.54 103.11,378.74 163.56,588.74 47.84,166.29 141.44,409.06 154.7,568.61l-665.46 0 237.37 -891.03zm-816.02 1874.78c46.41,4.65 143.57,-28.94 184.64,-46.81 163.83,-71.25 157.85,-176.54 220.42,-445.07l1012.65 0c2.63,118.24 64.86,303.36 121.76,370.13 167,196.12 542.53,92.81 688.38,92.81 -10.8,-129.89 -83.04,-260.78 -126.71,-394.09l-823.1 -2214.9c-88.16,-213.79 -621.58,-260.5 -738.38,23.85 -127.03,309.27 -941.98,2466.01 -944.14,2579.33l404.47 34.75z"/>
  <path class="fil0" d="M13830.1 557.9l549.74 0c419.96,0 459.32,410.01 336.82,597.08 -144.21,220.21 -535.29,155.18 -886.56,155.18 -35.33,-166.8 0,-12.71 0,-144.66l0 -607.6zm1099.46 1157.34c719.48,-167.62 921.48,-1707.09 -578.65,-1707.09l-1157.34 0c-66.67,0 -86.8,20.16 -86.8,86.8l0 2719.75c0,149.41 148,57.85 375.36,56.73 81.4,-0.38 152.21,4.24 231.45,8.78 75.22,4.31 116.53,39.68 116.53,-65.51l0 -954.8 405.06 0 549.74 1041.6c56.94,-4.75 88.51,-10.22 107.75,-12.89 723.99,-99.58 727.38,177.39 528.72,-218.33 -89.43,-178.11 -461.85,-826.41 -491.82,-955.04z"/>
  <path class="fil0" d="M9258.65 442.16c0,249.3 86.8,387.25 86.8,636.55 0,465.44 -31.96,382.91 -57.89,694.4 -97.02,-64.96 -384.55,-471.79 -457.89,-583.68 -307.9,-469.58 -490.56,-1078.23 -554.7,-1178.91l-636.58 -2.36 0 2864.4c199.37,0 378.88,26.32 542.57,-93.94 281.15,-206.61 7.14,-740.09 7.14,-1092.31 0,-236.27 57.86,-403.21 57.86,-607.6 70.33,51.53 410.01,781.37 493.15,924.59 47.54,81.85 83.01,146.57 134.5,241.64l124.46 222.74c319,497.77 31.4,404.88 926.02,404.88l0 -2777.6c0,-155.69 -315.42,-81.26 -422.21,-45.66 -249.33,83.14 -243.24,211.88 -243.24,392.85z"/>
  <path class="fil0" d="M5931.31 2901.5c565.84,0 1012.68,-499.65 1012.68,-1128.4l0 -1707.06c-114.24,0 -594.16,-21.08 -665.48,14.39 0,448.49 -0.11,896.98 0,1345.47 0.13,480.17 25.66,896.94 -462.91,896.94 -64.11,0 -230.23,-39.09 -278.95,-68.28 -78.09,-46.71 -128.05,-117.25 -148.42,-198.78 -64.01,-256.23 -35.58,-1650.12 -35.58,-1975.35 -71.32,-35.47 -551.25,-14.39 -665.45,-14.39l0 1707.06c0,344.43 97.15,620.59 266.86,803.65 283.85,306.19 588.94,324.74 977.26,324.74z"/>
  <path class="fil0" d="M3124.8 702.56c4,5.81 8.55,14.35 10.63,18.32l336.57 1139.03 -665.48 0 318.28 -1157.34zm-896.94 2170c308.04,0 383.15,-228.45 405.06,-491.85l1012.69 0c55.67,669.07 556.75,469.23 839.05,462.94 -29.63,-127.23 -86.73,-288.56 -136.18,-413.56 -53.14,-134.26 -85.95,-244.95 -140.69,-380.15 -104.53,-258.31 -190.28,-492.47 -289.69,-751.87 -102.79,-268.23 -177.29,-497.77 -281.01,-760.6 -87.04,-220.66 -84.44,-545.5 -506.41,-521.79 -365.41,20.54 -358.34,210.75 -415.17,364.42 -22.56,60.97 -43.2,108.53 -71.76,188.64 -223.02,625.09 -506.31,1266.63 -715.86,1888.11 -48.69,144.34 -99.45,238.28 -134.03,386.8l434 28.91z"/>
  <path class="fil0" d="M16593.07 1498.38c44.56,133.21 14.63,330.42 14.63,477.27 -0.03,1039.31 -164.33,868 665.46,868 0,-1640.11 -145.82,-1096.07 503.47,-2071.61l509.18 -764.8 -781.2 15.34c-43.47,122.99 -477.16,724.24 -520.77,911.47l-316.58 -464.66c-67.26,-112.42 -227.52,-333.8 -262.04,-459.25l-781.27 -1.98 969.11 1490.22z"/>
  <path class="fil0" d="M665.46 239.65c0,-165.16 -7.62,-231.49 -86.8,-231.49 -329.26,0 -578.66,187.2 -578.66,491.89l0 2372.5 1736 0c0,-177.08 -0.2,-334.83 -127.8,-479.79 -208.35,-236.65 -423.2,-156.71 -942.74,-156.71l0 -1996.4z"/>
  <polygon class="fil1" points="21613.15,2814.7 22278.6,2814.7 22278.6,37.11 21613.15,37.11 "/>
  <path class="fil0" d="M11370.76 297.51c0,221.68 -19.1,202.54 202.54,202.54l19.41 -38.45c33.9,-49.11 15.92,-22.42 38.44,-48.36 -50.71,-217.82 -129.96,-193.93 -260.4,-115.74z"/>
  <path class="fil0" d="M11746.9 1223.36c0,80.58 140.56,237.06 202.54,-28.91 -37.52,-25.16 -202.54,-140.9 -202.54,28.91z"/>
  <path class="fil0" d="M12209.85 355.36c58.54,110.66 27.17,115.75 144.66,115.75 81.71,-145.44 -17.6,-240.03 -144.66,-115.75z"/>
  <path class="fil0" d="M11833.7 384.31c77.26,115.4 45.52,87.72 173.6,57.85 -1.44,-63.77 8.85,-144.65 -57.86,-144.65 -72.27,0 -90.8,40.7 -115.74,86.8z"/>
  <path class="fil0" d="M10965.7 442.16c128.08,29.87 96.34,57.55 173.6,-57.85 -17.7,-26.42 -47.09,-86.8 -86.8,-86.8 -94.66,0 -86.8,51.87 -86.8,144.65z"/>
  <path class="fil0" d="M10560.65 355.36c51.43,97.23 2.36,53.89 86.8,115.75 38.99,-21.9 31.98,-15.82 86.8,-28.95 -3.66,-163.24 -61.79,-196.15 -173.6,-86.8z"/>
 </g>
</svg>
